<svg width="27" height="27" viewBox="0 0 27 27" fill="none" xmlns="http://www.w3.org/2000/svg">
<g filter="url(#filter0_d_0_2133)">
<mask id="path-1-outside-1_0_2133" maskUnits="userSpaceOnUse" x="1" y="1" width="25" height="25" fill="black">
<rect fill="white" x="1" y="1" width="25" height="25"/>
<path fill-rule="evenodd" clip-rule="evenodd" d="M22.5396 6.76266C22.8252 6.52573 22.9501 5.95328 21.8492 4.92661C17.1032 0.500886 9.07901 1.27763 4.65329 6.02364L3.5 7.43608V4.76513L3.49315 4.66336C3.44349 4.29729 3.1297 4.01513 2.75 4.01513C2.33579 4.01513 2 4.35092 2 4.76513V9.28961C2 9.8419 2.44772 10.2896 3 10.2896H8.01861L8.12038 10.2828C8.48646 10.2331 8.76861 9.91931 8.76861 9.53961L8.76177 9.43784C8.7121 9.07177 8.39831 8.78961 8.01861 8.78961L4.337 8.78908L4.71419 8.32052L5.78317 7.00897L5.99075 6.7929C9.84195 2.89972 16.76 2.23184 20.8262 6.02364L21.1052 6.27685C21.8749 6.95319 22.1544 6.99009 22.4059 6.85199L22.4998 6.7929L22.5396 6.76266ZM25.7372 22.5245V18C25.7372 17.4477 25.2895 17 24.7372 17H19.7186L19.6169 17.0068C19.2508 17.0565 18.9686 17.3703 18.9686 17.75L18.9755 17.8518C19.0251 18.2178 19.3389 18.5 19.7186 18.5L23.4002 18.5005L23.023 18.9691L21.9541 20.2806L21.7465 20.4967C17.8953 24.3899 10.9773 25.0578 6.91107 21.266L6.63202 21.0128C5.86231 20.3364 5.58287 20.2995 5.33138 20.4376L5.23748 20.4967L5.19764 20.527C4.91207 20.7639 4.78711 21.3363 5.88808 22.363C10.6341 26.7887 18.6582 26.012 23.084 21.266L24.2372 19.8535V22.5245L24.2441 22.6263C24.2938 22.9923 24.6075 23.2745 24.9872 23.2745C25.4015 23.2745 25.7372 22.9387 25.7372 22.5245Z"/>
</mask>
<path fill-rule="evenodd" clip-rule="evenodd" d="M22.5396 6.76266C22.8252 6.52573 22.9501 5.95328 21.8492 4.92661C17.1032 0.500886 9.07901 1.27763 4.65329 6.02364L3.5 7.43608V4.76513L3.49315 4.66336C3.44349 4.29729 3.1297 4.01513 2.75 4.01513C2.33579 4.01513 2 4.35092 2 4.76513V9.28961C2 9.8419 2.44772 10.2896 3 10.2896H8.01861L8.12038 10.2828C8.48646 10.2331 8.76861 9.91931 8.76861 9.53961L8.76177 9.43784C8.7121 9.07177 8.39831 8.78961 8.01861 8.78961L4.337 8.78908L4.71419 8.32052L5.78317 7.00897L5.99075 6.7929C9.84195 2.89972 16.76 2.23184 20.8262 6.02364L21.1052 6.27685C21.8749 6.95319 22.1544 6.99009 22.4059 6.85199L22.4998 6.7929L22.5396 6.76266ZM25.7372 22.5245V18C25.7372 17.4477 25.2895 17 24.7372 17H19.7186L19.6169 17.0068C19.2508 17.0565 18.9686 17.3703 18.9686 17.75L18.9755 17.8518C19.0251 18.2178 19.3389 18.5 19.7186 18.5L23.4002 18.5005L23.023 18.9691L21.9541 20.2806L21.7465 20.4967C17.8953 24.3899 10.9773 25.0578 6.91107 21.266L6.63202 21.0128C5.86231 20.3364 5.58287 20.2995 5.33138 20.4376L5.23748 20.4967L5.19764 20.527C4.91207 20.7639 4.78711 21.3363 5.88808 22.363C10.6341 26.7887 18.6582 26.012 23.084 21.266L24.2372 19.8535V22.5245L24.2441 22.6263C24.2938 22.9923 24.6075 23.2745 24.9872 23.2745C25.4015 23.2745 25.7372 22.9387 25.7372 22.5245Z" fill="white"/>
<path d="M21.8492 4.92661L21.9856 4.78034L21.8492 4.92661ZM22.5396 6.76266L22.6606 6.92211L22.6673 6.91658L22.5396 6.76266ZM4.65329 6.02364L4.5067 5.88695L4.49837 5.89715L4.65329 6.02364ZM3.5 7.43608H3.3V7.99724L3.65492 7.56257L3.5 7.43608ZM3.5 4.76513H3.70045L3.69955 4.75171L3.5 4.76513ZM3.49315 4.66336L3.69316 4.64991L3.69134 4.63648L3.49315 4.66336ZM8.01861 10.2896V10.4901L8.03204 10.4892L8.01861 10.2896ZM8.12038 10.2828L8.13384 10.4828L8.14727 10.481L8.12038 10.2828ZM8.76861 9.53961H8.96906L8.96816 9.52619L8.76861 9.53961ZM8.76177 9.43784L8.96177 9.42439L8.95995 9.41096L8.76177 9.43784ZM8.01861 8.78961L8.01858 8.98961H8.01861V8.78961ZM4.337 8.78908L4.18121 8.66366L3.9193 8.98902L4.33697 8.98908L4.337 8.78908ZM4.71419 8.32052L4.55916 8.19416L4.5584 8.1951L4.71419 8.32052ZM5.78317 7.00897L5.63894 6.87041L5.63329 6.87629L5.62814 6.88261L5.78317 7.00897ZM5.99075 6.7929L5.84854 6.65224L5.84652 6.65434L5.99075 6.7929ZM20.8262 6.02364L20.6898 6.16992L20.6918 6.17175L20.8262 6.02364ZM21.1052 6.27685L20.9708 6.42498L20.9732 6.42709L21.1052 6.27685ZM22.4059 6.85199L22.5023 7.02761L22.5124 7.02127L22.4059 6.85199ZM22.4998 6.7929L22.6063 6.96218L22.6137 6.95751L22.6207 6.95221L22.4998 6.7929ZM19.7186 17V16.7995L19.7052 16.8005L19.7186 17ZM19.6169 17.0068L19.6034 16.8068L19.59 16.8087L19.6169 17.0068ZM18.9686 17.75H18.7682L18.7691 17.7634L18.9686 17.75ZM18.9755 17.8518L18.7755 17.8652L18.7773 17.8787L18.9755 17.8518ZM19.7186 18.5L19.7187 18.3H19.7186V18.5ZM23.4002 18.5005L23.556 18.626L23.8179 18.3006L23.4003 18.3005L23.4002 18.5005ZM23.023 18.9691L23.1781 19.0955L23.1788 19.0945L23.023 18.9691ZM21.9541 20.2806L22.0983 20.4192L22.104 20.4133L22.1091 20.407L21.9541 20.2806ZM21.7465 20.4967L21.8887 20.6374L21.8907 20.6353L21.7465 20.4967ZM6.91107 21.266L7.04749 21.1197L7.04547 21.1179L6.91107 21.266ZM6.63202 21.0128L6.76644 20.8646L6.76404 20.8625L6.63202 21.0128ZM5.33138 20.4376L5.23494 20.262L5.22487 20.2683L5.33138 20.4376ZM5.23748 20.4967L5.13097 20.3274L5.12354 20.3321L5.11655 20.3374L5.23748 20.4967ZM5.19764 20.527L5.0766 20.3675L5.06994 20.373L5.19764 20.527ZM5.88808 22.363L6.02448 22.2167L5.88808 22.363ZM23.084 21.266L23.2305 21.4027L23.2389 21.3925L23.084 21.266ZM24.2372 19.8535H24.4372V19.2924L24.0823 19.727L24.2372 19.8535ZM24.2372 22.5245H24.0368L24.0377 22.5379L24.2372 22.5245ZM24.2441 22.6263L24.0441 22.6397L24.0459 22.6531L24.2441 22.6263ZM21.7128 5.07288C22.2519 5.5756 22.4623 5.94215 22.5196 6.1865C22.5729 6.41345 22.4965 6.53856 22.4119 6.60874L22.6673 6.91658C22.8683 6.74984 22.9971 6.47025 22.909 6.09508C22.825 5.73731 22.5474 5.30429 21.9856 4.78034L21.7128 5.07288ZM4.79956 6.16004C9.16024 1.48378 17.0582 0.732384 21.7128 5.07288L21.9856 4.78034C17.1482 0.269389 8.99778 1.07149 4.50702 5.88724L4.79956 6.16004ZM3.65492 7.56257L4.8082 6.15013L4.49837 5.89715L3.34508 7.30958L3.65492 7.56257ZM3.3 4.76513V7.43608H3.7V4.76513H3.3ZM3.2936 4.67679L3.30045 4.77856L3.69955 4.75171L3.6927 4.64994L3.2936 4.67679ZM2.75 4.21513C3.02828 4.21513 3.25858 4.42199 3.29497 4.69025L3.69134 4.63648C3.62841 4.17258 3.23111 3.81513 2.75 3.81513V4.21513ZM2.2 4.76513C2.2 4.46137 2.44624 4.21513 2.75 4.21513V3.81513C2.22533 3.81513 1.8 4.24046 1.8 4.76513H2.2ZM2.2 9.28961V4.76513H1.8V9.28961H2.2ZM3 10.0896C2.55817 10.0896 2.2 9.73144 2.2 9.28961H1.8C1.8 9.95235 2.33726 10.4896 3 10.4896V10.0896ZM8.01861 10.0896H3V10.4896H8.01861V10.0896ZM8.10696 10.0832L8.00519 10.0901L8.03204 10.4892L8.13381 10.4823L8.10696 10.0832ZM8.56861 9.53961C8.56861 9.81789 8.36176 10.0482 8.0935 10.0846L8.14727 10.481C8.61116 10.418 8.96861 10.0207 8.96861 9.53961H8.56861ZM8.56222 9.45127L8.56906 9.55304L8.96816 9.52619L8.96131 9.42442L8.56222 9.45127ZM8.01861 8.98961C8.29689 8.98961 8.52719 9.19647 8.56358 9.46473L8.95995 9.41096C8.89702 8.94707 8.49972 8.58961 8.01861 8.58961V8.98961ZM4.33697 8.98908L8.01858 8.98961L8.01864 8.58961L4.33703 8.58908L4.33697 8.98908ZM4.5584 8.1951L4.18121 8.66366L4.49279 8.91449L4.86999 8.44593L4.5584 8.1951ZM5.62814 6.88261L4.55916 8.19416L4.86922 8.44687L5.9382 7.13533L5.62814 6.88261ZM5.84652 6.65434L5.63894 6.87041L5.92739 7.14753L6.13497 6.93146L5.84652 6.65434ZM20.9626 5.87737C16.8051 2.00048 9.76358 2.69456 5.84856 6.65225L6.13293 6.93356C9.92032 3.10488 16.7148 2.46321 20.6898 6.16991L20.9626 5.87737ZM21.2396 6.12873L20.9606 5.87553L20.6918 6.17175L20.9708 6.42496L21.2396 6.12873ZM22.3096 6.67668C22.2645 6.70146 22.2277 6.71328 22.1902 6.71603C22.1522 6.71882 22.0995 6.71331 22.0221 6.68334C21.8596 6.6204 21.6196 6.46261 21.2372 6.12661L20.9732 6.42709C21.3605 6.76743 21.6451 6.96626 21.8776 7.05633C21.9978 7.10287 22.1102 7.12296 22.2194 7.11496C22.329 7.10693 22.4215 7.07157 22.5021 7.0273L22.3096 6.67668ZM22.3932 6.62363L22.2993 6.68271L22.5124 7.02127L22.6063 6.96218L22.3932 6.62363ZM22.4187 6.60336L22.3788 6.6336L22.6207 6.95221L22.6605 6.92197L22.4187 6.60336ZM25.5372 18V22.5245H25.9372V18H25.5372ZM24.7372 17.2C25.1791 17.2 25.5372 17.5582 25.5372 18H25.9372C25.9372 17.3373 25.4 16.8 24.7372 16.8V17.2ZM19.7186 17.2H24.7372V16.8H19.7186V17.2ZM19.6303 17.2064L19.7321 17.1995L19.7052 16.8005L19.6034 16.8073L19.6303 17.2064ZM19.1686 17.75C19.1686 17.4717 19.3755 17.2414 19.6437 17.205L19.59 16.8087C19.1261 16.8716 18.7686 17.2689 18.7686 17.75H19.1686ZM19.175 17.8383L19.1682 17.7366L18.7691 17.7634L18.7759 17.8652L19.175 17.8383ZM19.7186 18.3C19.4403 18.3 19.2101 18.0931 19.1737 17.8249L18.7773 17.8787C18.8402 18.3425 19.2375 18.7 19.7186 18.7V18.3ZM23.4003 18.3005L19.7187 18.3L19.7186 18.7L23.4002 18.7005L23.4003 18.3005ZM23.1788 19.0945L23.556 18.626L23.2444 18.3751L22.8673 18.8437L23.1788 19.0945ZM22.1091 20.407L23.1781 19.0955L22.868 18.8427L21.799 20.1543L22.1091 20.407ZM21.8907 20.6353L22.0983 20.4192L21.8098 20.1421L21.6023 20.3582L21.8907 20.6353ZM6.77467 21.4122C10.9321 25.2891 17.9737 24.5951 21.8887 20.6374L21.6043 20.3561C17.8169 24.1847 11.0224 24.8264 7.04747 21.1197L6.77467 21.4122ZM6.49763 21.1609L6.77668 21.4141L7.04547 21.1179L6.76642 20.8647L6.49763 21.1609ZM5.42765 20.6129C5.47278 20.5882 5.50951 20.5763 5.54708 20.5736C5.58508 20.5708 5.63775 20.5763 5.71513 20.6063C5.87761 20.6692 6.11762 20.827 6.50001 21.163L6.76404 20.8625C6.37671 20.5222 6.09215 20.3234 5.85961 20.2333C5.73948 20.1867 5.62702 20.1667 5.51785 20.1747C5.40823 20.1827 5.31573 20.218 5.23511 20.2623L5.42765 20.6129ZM5.34399 20.666L5.4379 20.6069L5.22487 20.2683L5.13097 20.3274L5.34399 20.666ZM5.31857 20.6863L5.35841 20.656L5.11655 20.3374L5.07671 20.3677L5.31857 20.6863ZM6.02448 22.2167C5.48537 21.714 5.27498 21.3475 5.21761 21.1031C5.16433 20.8762 5.24076 20.7511 5.32535 20.6809L5.06994 20.373C4.86896 20.5398 4.74012 20.8194 4.8282 21.1945C4.9122 21.5523 5.18981 21.9853 5.75168 22.5093L6.02448 22.2167ZM22.9377 21.1296C18.577 25.8058 10.6791 26.5572 6.02448 22.2167L5.75168 22.5093C10.5891 27.0202 18.7395 26.2181 23.2302 21.4024L22.9377 21.1296ZM24.0823 19.727L22.929 21.1395L23.2389 21.3925L24.3922 19.98L24.0823 19.727ZM24.4372 22.5245V19.8535H24.0372V22.5245H24.4372ZM24.4436 22.6128L24.4368 22.5111L24.0377 22.5379L24.0445 22.6397L24.4436 22.6128ZM24.9872 23.0745C24.709 23.0745 24.4787 22.8676 24.4423 22.5994L24.0459 22.6531C24.1088 23.117 24.5061 23.4745 24.9872 23.4745V23.0745ZM25.5372 22.5245C25.5372 22.8282 25.291 23.0745 24.9872 23.0745V23.4745C25.5119 23.4745 25.9372 23.0492 25.9372 22.5245H25.5372Z" fill="black" fill-opacity="0.2" mask="url(#path-1-outside-1_0_2133)"/>
</g>
<defs>
<filter id="filter0_d_0_2133" x="0.800049" y="0.799805" width="26.1372" height="25.69" filterUnits="userSpaceOnUse" color-interpolation-filters="sRGB">
<feFlood flood-opacity="0" result="BackgroundImageFix"/>
<feColorMatrix in="SourceAlpha" type="matrix" values="0 0 0 0 0 0 0 0 0 0 0 0 0 0 0 0 0 0 127 0" result="hardAlpha"/>
<feOffset/>
<feGaussianBlur stdDeviation="0.5"/>
<feColorMatrix type="matrix" values="0 0 0 0 0.14902 0 0 0 0 0.14902 0 0 0 0 0.14902 0 0 0 0.4 0"/>
<feBlend mode="normal" in2="BackgroundImageFix" result="effect1_dropShadow_0_2133"/>
<feBlend mode="normal" in="SourceGraphic" in2="effect1_dropShadow_0_2133" result="shape"/>
</filter>
</defs>
</svg>
